<?xml version="1.0" encoding="UTF-8" standalone="yes"?>
<svg version="1.2" baseProfile="tiny-ps" viewBox="0 0 300 300" xmlns="http://www.w3.org/2000/svg">
  <title>bimi-svg-tiny-12-ps</title>
  <g>
    <g fill="#f9fefd" transform="matrix(.1 0 0 -.1 0 300)">
      <path d="M0 1500V0h3000v3000H0V1500z"/>
    </g>
    <g fill="#9ebbb8" transform="matrix(.1 0 0 -.1 0 300)">
      <path d="M2343 2900c-358-40-680-221-889-499-54-73-144-225-144-245 0-3 15-6 34-6h34l48 68c153 216 366 357 630 418l79 19 145-1 145-2 100-26 100-26 101-50 100-50 87-70 87-69v429l-37 16c-134 56-289 90-448 98l-100 4-72-8zm-1048-862c-2-7-9-51-15-98-7-47-14-87-16-89-3-3-55-6-117-6l-112-2-55-21c-31-12-76-36-99-54l-44-32-39-60-38-60-20-64-20-64v-50c0-27 5-69 11-92l11-44 31-37 31-38 40-18 41-19h140l45 21c25 11 60 35 78 52l34 32-7-48-7-48 83 3 84 3 8 60c15 104 97 597 112 670 8 39 15 80 15 93v22h-171l-4-12zm-56-324c1-1-5-49-14-106l-17-103-28-61-28-61-36-28-36-27-43-5-44-5-31 16-32 16-15 30-15 29v97l16 46 15 46 36 41c42 49 80 71 142 80 41 6 120 3 130-5zm481 249c-36-8-68-20-71-25-4-6-10-32-13-59l-7-49h-88l-5-9c-3-4-8-34-12-65l-7-56h85l-5-22c-3-13-20-101-36-197l-31-174 7-26c3-14 12-36 20-48l14-22 31-10 31-11 76 1c42 1 87 4 101 8l25 7 17 49c9 28 17 56 17 63l1 12-55-6-55-7-20 18-20 18v26c0 14 11 91 25 171s25 146 25 148c0 1 33 2 74 2h75l4 8c3 4 8 33 12 65l7 57h-154l5 23c3 12 9 46 13 75l7 52-14-1c-8 0-43-8-79-16zm450-123-45-10-39-27-39-28-18-35-19-35v-86l14-27c8-15 53-64 100-108l86-80v-16c0-9-10-29-23-44l-23-27-50-4-49-4-50 15c-27 8-60 17-72 21l-23 7v-140l68-12 69-13 84 5 84 4 53 29 53 28 19 32c11 18 23 46 26 63l6 31-7 38-7 38-94 92-94 91v17c0 9 11 27 25 40l24 25h58c32 0 75-5 96-11 22-6 41-9 43-6 2 2 7 31 10 64l7 60-33 7c-18 3-70 8-114 11l-81 4-45-9zM75 1818c2-7 34-151 70-321l66-307-12-23c-6-12-27-43-46-69l-33-46-32-11c-17-6-44-11-59-11H0V900h97l47 14c64 19 106 50 145 105 30 42 435 764 448 798l5 14-87-3-87-3-119-230-118-229-4 14c-3 8-20 113-38 232l-34 218H71l4-12zm1259-745c4-10 30-56 59-102l52-83 88-94 89-94 77-58 77-58 100-51c114-58 213-94 334-120l85-18 170 1h170l110 28c61 15 142 40 180 55l70 28 3 213 2 212-54-49c-107-98-239-170-401-220l-90-27h-370l-90 27c-223 68-396 182-528 350l-61 77h-78l6-17z"/>
    </g>
    <g fill="#32a4cd" transform="matrix(.1 0 0 -.1 0 300)">
      <path d="M2289 2890c-217-34-419-118-586-244-134-101-271-260-345-402-21-40-38-75-38-78s15-6 33-6l32 1 44 65c24 35 75 97 114 136l71 71 90 59c100 64 199 109 314 140l77 21 170 1 170 1 85-23c168-46 324-128 430-228l50-47v431l-87 32c-49 17-124 40-168 51l-80 20-160 4-160 4-56-9zm-993-872c-6-25-26-163-26-174v-7l-67 6-67 5-65-9-66-9-61-30-61-30-43-46-42-45-29-63-29-63-11-62-11-63 11-56 11-56 24-37 25-37 52-26 53-26h121l51 24c28 13 66 37 86 55l35 31-8-43c-4-23-8-45-9-49v-8h158l6 28c3 15 7 45 10 67 12 88 96 585 111 653 8 40 15 78 15 83v9h-170l-4-22zm-78-294 22-6v-32c0-17-9-72-19-122l-19-90-20-40c-11-21-36-54-56-73l-36-35-58-4-58-4-32 27-32 26-10 41-11 40 6 38c4 21 19 65 35 98l28 59 36 28c58 45 158 66 224 49zm510 236-77-14-6-36c-3-19-8-47-11-62l-6-28h-87l-4-17c-3-10-8-35-12-55l-6-38h81v-17c0-10-14-92-30-183-17-91-30-184-30-208v-44l28-28 29-28 46-7 47-7 63 6c34 4 67 10 73 14 5 4 16 27 23 51 7 23 15 49 17 56l5 13-60-5-61-6-15 13-15 12v39c0 38 35 277 46 312l5 17h149l4 23c3 12 7 37 10 55l6 32h-150v18c0 10 5 44 11 76s9 59 7 60-38-5-80-14zm407-135-40-14-37-41-37-42-7-35-7-35 12-38 11-39 90-87 90-88v-47l-25-24-24-25h-63l-63 1-51 17-52 18-5-60-6-61 7-7c4-4 41-12 82-19l75-11 66 5 66 6 47 21 46 22 25 30 24 29 11 39 11 40-11 42-12 42-89 85-89 84v47l19 19 20 20 43 6 43 6 46-10c25-6 53-13 62-17l17-6v129l-46 7c-26 3-83 6-128 6l-81-1-40-14zm-2055-2c0-5 30-149 67-321l67-313-19-36c-11-19-35-53-55-75l-35-41-53-5-52-5V912l27-6 28-6 52 9c29 6 70 19 92 30l39 20 30 36c16 20 62 96 103 168 40 73 140 251 221 396s148 265 148 267-37 4-83 4h-83l-125-242-124-243-3 30c-3 32-60 394-68 433l-4 22H80v-7zm1260-751c0-19 104-173 163-242 217-254 530-409 882-435l90-7 100 11c126 14 237 41 343 81l82 32v409l-58-50c-161-140-371-226-603-247l-76-6-101 11c-237 28-430 116-598 274-36 34-86 87-111 119l-44 58h-69v-8z"/>
    </g>
    <g fill="#4da30f" transform="matrix(.1 0 0 -.1 0 300)">
      <path d="M2286 2890c-32-5-102-21-155-35l-96-26-103-49c-57-27-135-71-174-96-89-60-231-194-302-287-58-77-142-224-133-234 13-13 36 8 65 60 17 31 64 95 105 144l73 88 83 65c45 36 123 88 172 116l89 52 110 36 109 36 98 15 98 15h190l92-15c104-17 223-52 319-95 36-17 68-30 70-30s4 31 4 69v69l-87 32c-49 17-126 41-173 51l-85 20-155 4-155 4-59-9zm-94-164c-109-21-208-53-301-99l-84-41-77-57c-106-78-108-89-4-24l86 54 79 31c44 17 110 38 147 47l67 17 165 1h165l85-23c168-46 323-128 430-228l50-47v192l-68 40c-87 52-174 87-292 118l-95 25-140 4-140 4-73-14zm-896-718c-3-18-10-64-16-103l-11-70h-254l-67-33-67-33-41-46-41-47-31-65-32-66-4-96-4-96 20-40c12-22 37-54 56-71l36-31 42-12 43-11 56 5 55 5 40 20c21 11 56 37 77 59l39 38-7-40c-4-22-9-47-11-55l-4-15h80c44 0 80 1 80 2 0 31 101 638 125 754 8 39 15 72 15 75 0 2-38 4-85 4h-84l-5-32zm-53-288c7-7-29-208-44-250-7-19-23-52-37-73l-25-37-33-21-34-21h-43l-44-1-30 18c-38 22-52 45-59 99l-6 43 16 55 15 54 31 42c33 46 62 68 118 88l37 14 67-3c37-1 69-5 71-7zm485 240-77-14-6-36c-3-19-8-47-11-62l-6-28h-87l-4-17c-3-10-8-35-12-55l-6-38h81v-17c0-10-14-92-30-183-17-91-30-184-30-208v-44l28-28 29-28 46-7 47-7 63 6c34 4 67 10 73 14 5 4 16 27 23 51 7 23 15 49 17 56l5 13-60-5-61-6-15 13-15 12v39c0 38 35 277 46 312l5 17h149l4 23c3 12 7 37 10 55l6 32h-150v18c0 10 5 44 11 76s9 59 7 60-38-5-80-14zm407-135-40-14-37-41-37-42-7-35-7-35 12-38 11-39 90-87 90-88v-47l-25-24-24-25h-63l-63 1-51 17-52 18-5-60-6-61 7-7c4-4 41-12 82-19l75-11 66 5 66 6 47 21 46 22 25 30 24 29 11 39 11 40-11 42-12 42-89 85-89 84v47l19 19 20 20 43 6 43 6 46-10c25-6 53-13 62-17l17-6v129l-46 7c-26 3-83 6-128 6l-81-1-40-14zm-2055 2c0-2 27-127 59-278 33-151 62-295 66-321l7-47-26-44c-14-25-41-58-61-76l-36-31-27-1c-15-1-35-1-44 0l-18 2V907l79 5 78 5 45 26 45 26 25 33c14 18 123 209 243 423 120 215 220 393 222 398l4 7H575l-125-245-125-245-3 33c-2 17-19 125-38 239-18 113-34 209-34 212s-38 6-85 6-85-1-85-3zm1260-754c0-17 78-136 140-214l64-81 73-63c217-190 471-296 768-320l80-7 110 12c130 14 229 38 343 82l82 32v126l-22-14c-45-28-209-87-300-108l-93-22-170 1h-170l-73 16c-309 71-553 227-731 466-33 46-61 87-61 92v9h-20c-11 0-20-3-20-7zm1593-209c-121-103-286-184-448-220l-80-17h-270l-80 17c-44 10-117 32-162 50-46 18-83 32-83 30s33-20 73-40c92-47 189-80 290-99l79-15h246l79 15c139 26 325 101 397 159l27 21-3 76-3 75-62-52z"/>
    </g>
    <g fill="#045caf" transform="matrix(.1 0 0 -.1 0 300)">
      <path d="M2286 2890c-32-5-102-21-155-35l-96-26-103-49c-57-27-135-71-174-96-89-60-231-194-302-287-58-77-142-224-133-234 13-13 36 8 65 60 17 31 64 95 105 144l73 88 83 65c45 36 123 88 172 116l89 52 110 36 109 36 98 15 98 15h190l92-15c104-17 223-52 319-95 36-17 68-30 70-30s4 31 4 69v69l-87 32c-49 17-126 41-173 51l-85 20-155 4-155 4-59-9zm-990-882c-3-18-10-64-16-103l-11-70h-254l-67-33-67-33-41-46-41-47-31-65-32-66-4-96-4-96 20-40c12-22 37-54 56-71l36-31 42-12 43-11 56 5 55 5 40 20c21 11 56 37 77 59l39 38-7-40c-4-22-9-47-11-55l-4-15h80c44 0 80 1 80 2 0 31 101 638 125 754 8 39 15 72 15 75 0 2-38 4-85 4h-84l-5-32zm-53-288c7-7-29-208-44-250-7-19-23-52-37-73l-25-37-33-21-34-21h-43l-44-1-30 18c-38 22-52 45-59 99l-6 43 16 55 15 54 31 42c33 46 62 68 118 88l37 14 67-3c37-1 69-5 71-7zm485 240-77-14-6-36c-3-19-8-47-11-62l-6-28h-87l-4-17c-3-10-8-35-12-55l-6-38h81v-17c0-10-14-92-30-183-17-91-30-184-30-208v-44l28-28 29-28 46-7 47-7 63 6c34 4 67 10 73 14 5 4 16 27 23 51 7 23 15 49 17 56l5 13-60-5-61-6-15 13-15 12v39c0 38 35 277 46 312l5 17h149l4 23c3 12 7 37 10 55l6 32h-150v18c0 10 5 44 11 76s9 59 7 60-38-5-80-14zm407-135-40-14-37-41-37-42-7-35-7-35 12-38 11-39 90-87 90-88v-47l-25-24-24-25h-63l-63 1-51 17-52 18-5-60-6-61 7-7c4-4 41-12 82-19l75-11 66 5 66 6 47 21 46 22 25 30 24 29 11 39 11 40-11 42-12 42-89 85-89 84v47l19 19 20 20 43 6 43 6 46-10c25-6 53-13 62-17l17-6v129l-46 7c-26 3-83 6-128 6l-81-1-40-14zm-2055 2c0-2 27-127 59-278 33-151 62-295 66-321l7-47-26-44c-14-25-41-58-61-76l-36-31-27-1c-15-1-35-1-44 0l-18 2V907l79 5 78 5 45 26 45 26 25 33c14 18 123 209 243 423 120 215 220 393 222 398l4 7H575l-125-245-125-245-3 33c-2 17-19 125-38 239-18 113-34 209-34 212s-38 6-85 6-85-1-85-3zm1260-754c0-17 78-136 140-214l64-81 73-63c217-190 471-296 768-320l80-7 110 12c130 14 229 38 343 82l82 32v126l-22-14c-45-28-209-87-300-108l-93-22-170 1h-170l-73 16c-309 71-553 227-731 466-33 46-61 87-61 92v9h-20c-11 0-20-3-20-7z"/>
    </g>
    <g fill="#3a403e" transform="matrix(.1 0 0 -.1 0 300)">
      <path d="M2383 2893c9-2 23-2 30 0l12 5h-60l18-5zm150 0c9-2 23-2 30 0l12 5h-60l18-5zm-245-10c7-3 16-2 19 1 4 3-2 6-13 5l-19-1 13-5zm350 0c7-3 16-2 19 1 4 3-2 6-13 5l-19-1 13-5zm-1024-315-29-33 33 29c30 28 37 36 29 36-2 0-16-15-33-32zm-95-95-24-28 28 24c25 23 32 31 24 31-2 0-14-12-28-27zm-50-60-14-18 18 14c9 7 17 15 17 17 0 8-8 3-21-13zm-109-163c-6-11-8-20-6-20 3 0 10 9 16 20s8 20 6 20c-3 0-10-9-16-20zm-40-80c0-6 7-10 15-10s15 2 15 4-7 6-15 10l-15 5v-9zm408-210-77-14-6-36c-3-19-8-47-11-62l-6-28h-87l-4-17c-3-10-8-35-12-55l-6-38h81v-17c0-10-14-92-30-183-17-91-30-184-30-208v-44l28-28 29-28 46-7 47-7 63 6c34 4 67 10 73 14 5 4 16 27 23 51 7 23 15 49 17 56l5 13-60-5-61-6-15 13-15 12v39c0 38 35 277 46 312l5 17h149l4 23c3 12 7 37 10 55l6 32h-150v18c0 10 5 44 11 76s9 59 7 60-38-5-80-14zm407-135-40-14-37-41-37-42-7-35-7-35 12-38 11-39 90-87 90-88v-47l-25-24-24-25h-63l-63 1-51 17-52 18-5-60-6-61 7-7c4-4 41-12 82-19l75-11 66 5 66 6 47 21 46 22 25 30 24 29 11 39 11 40-11 42-12 42-89 85-89 84v47l19 19 20 20 43 6 43 6 46-10c25-6 53-13 62-17l17-6v129l-46 7c-26 3-83 6-128 6l-81-1-40-14zm-787-752c7-3 16-2 19 1 4 3-2 6-13 5l-19-1 13-5zm92-167c0-2 8-10 18-17l17-14-14 18c-13 16-21 21-21 13zm55-66c10-11 20-20 23-20s-3 9-13 20-20 20-23 20 3-9 13-20zm80-90c10-11 20-20 23-20s-3 9-13 20-20 20-23 20 3-9 13-20zm70-60c10-11 20-20 23-20s-3 9-13 20-20 20-23 20 3-9 13-20zm673-287c7-3 16-2 19 1 4 3-2 6-13 5l-19-1 13-5zm260 0c7-3 16-2 19 1 4 3-2 6-13 5l-19-1 13-5z"/>
    </g>
  </g>
</svg>